<svg width="22" height="110" viewBox="0 0 22 110" fill="none" xmlns="http://www.w3.org/2000/svg">
<path d="M21.3555 16.2637H0.644531C0.288578 16.2637 0 16.5522 0 16.9082C0 18.4507 1.25043 19.7012 2.79297 19.7012H19.207C20.7495 19.7012 22 18.4507 22 16.9082C22 16.5522 21.7114 16.2637 21.3555 16.2637Z" fill="url(#paint0_linear_20_94)"/>
<path d="M12.7188 4.36081V4.01758C12.7188 3.06836 11.9492 2.29883 11 2.29883C10.0508 2.29883 9.28125 3.06836 9.28125 4.01758V4.36081C9.84513 4.27595 10.4192 4.23242 11 4.23242C11.5808 4.23242 12.1549 4.27595 12.7188 4.36081Z" fill="url(#paint1_linear_20_94)"/>
<path d="M18.1397 8.47902C16.2325 6.57181 13.6967 5.52148 10.9996 5.52148C8.30236 5.52148 5.76664 6.57181 3.85943 8.47902C2.10497 10.2335 1.07634 12.52 0.922729 14.9746H21.0763C20.9227 12.52 19.8941 10.2335 18.1397 8.47902Z" fill="url(#paint2_linear_20_94)"/>
<path d="M4.07129 34.1962H5.85383V35.5119H4.07129V34.1962Z" fill="url(#paint3_linear_20_94)"/>
<path d="M19.7999 30.7108H2.17013C1.52387 30.7108 1 31.2346 1 31.8809V41.8299C1 42.4761 1.52387 42.9999 2.17013 42.9999H19.7999C20.4461 42.9999 20.97 42.4761 20.97 41.8298V31.8809C20.97 31.2346 20.4461 30.7108 19.7999 30.7108V30.7108ZM5.71917 40.4609H2.82298V39.2908H5.71917V40.4609ZM7.02363 35.7068C7.02363 36.2444 6.58621 36.6818 6.04855 36.6818H3.87592C3.33826 36.6818 2.90083 36.2444 2.90083 35.7068V34.001C2.90083 33.4633 3.33826 33.0259 3.87592 33.0259H6.04851C6.58617 33.0259 7.0236 33.4633 7.0236 34.001V35.7068H7.02363ZM10.1951 40.4609H7.29891V39.2908H10.1951V40.4609ZM14.6711 40.4609H11.7749V39.2908H14.6711V40.4609ZM19.147 40.4609H16.2508V39.2908H19.147V40.4609Z" fill="url(#paint4_linear_20_94)"/>
<path d="M16.7079 25.8424L14.2082 23.3427C13.7513 22.8858 13.0104 22.8858 12.5534 23.3427L6.35547 29.5407H13.2209L16.7079 25.8424Z" fill="url(#paint5_linear_20_94)"/>
<path d="M16.636 29.5407L18.4657 27.6002L17.5357 26.6702L14.8291 29.5407H16.636Z" fill="url(#paint6_linear_20_94)"/>
<path d="M19.7996 29.5407C20.0509 29.5407 20.2929 29.581 20.52 29.6546L19.2933 28.4279L18.2441 29.5407H19.7996V29.5407Z" fill="url(#paint7_linear_20_94)"/>
<path d="M5.43182 50.9227C7.06477 50.9227 8.39317 49.5942 8.39317 47.9614C8.39317 46.3284 7.06463 45 5.43182 45C3.799 45 2.47046 46.3284 2.47046 47.9614C2.47046 49.5942 3.79886 50.9227 5.43182 50.9227Z" fill="url(#paint8_linear_20_94)"/>
<path d="M15.6189 52.7511C16.4348 52.7511 17.0983 52.0876 17.0983 51.2722V50.2766C16.0671 50.2385 15.0402 50.0944 14.0381 49.847V51.1702C14.0379 52.0435 14.7446 52.7511 15.6189 52.7511V52.7511Z" fill="url(#paint9_linear_20_94)"/>
<path d="M10.499 58.8195C8.54863 58.8195 6.96191 60.4063 6.96191 62.3567V63.4433C6.96191 63.7508 7.2111 64 7.51855 64H13.4807C13.7882 64 14.0373 63.7508 14.0373 63.4433V62.3573C14.0373 60.4066 12.4503 58.8195 10.499 58.8195V58.8195Z" fill="url(#paint10_linear_20_94)"/>
<path d="M5.84901 62.3568C5.84901 60.538 6.89865 58.9599 8.4239 58.196C7.40021 57.5196 6.72354 56.359 6.72354 55.043C6.72354 54.1173 7.05854 53.2686 7.6133 52.6111C6.96896 52.2452 6.22459 52.0359 5.43211 52.0359C2.98825 52.036 1 54.0241 1 56.468V63.4434C1 63.7508 1.24918 64 1.55664 64H5.94468C5.88293 63.8258 5.84901 63.6385 5.84901 63.4434V62.3568Z" fill="url(#paint11_linear_20_94)"/>
<path d="M10.5006 57.7062C11.9692 57.7062 13.1638 56.5114 13.1638 55.043C13.1638 53.5746 11.9692 52.3798 10.5006 52.3798C9.03201 52.3798 7.8374 53.5746 7.8374 55.043C7.8374 56.5116 9.03201 57.7062 10.5006 57.7062Z" fill="url(#paint12_linear_20_94)"/>
<path d="M15.5679 53.8643C15.0745 53.8643 14.5996 53.9455 14.1559 54.095C14.2346 54.3981 14.2765 54.7157 14.2765 55.043C14.2765 56.3591 13.5996 57.5199 12.5758 58.1961C14.1012 58.9604 15.151 60.5384 15.151 62.3573V63.4434C15.151 63.6385 15.1171 63.8258 15.0553 64H19.4434C19.7508 64 20 63.7508 20 63.4434V58.2965C20 55.8526 18.0117 53.8643 15.5679 53.8643V53.8643Z" fill="url(#paint13_linear_20_94)"/>
<path d="M15.5679 45C13.1239 45 11.1355 46.9883 11.1355 49.4324V51.3203C11.9638 51.4612 12.7009 51.8728 13.2526 52.4604C13.0384 52.0692 12.9241 51.6285 12.9241 51.1702V49.1339C12.9241 48.9626 13.0033 48.8008 13.1384 48.6953C13.2733 48.5899 13.4496 48.5525 13.6159 48.5941L14.2657 48.7566C15.3731 49.0335 16.513 49.1736 17.6546 49.1736C17.9617 49.1736 18.2112 49.4231 18.2112 49.7303V51.2722C18.2112 51.9777 17.9272 52.6186 17.4686 53.0865C17.9848 53.2758 18.465 53.5392 18.897 53.8644H19.4432C19.7505 53.8644 19.9999 53.6149 19.9999 53.3077V49.4324C19.9999 46.9883 18.0116 45 15.5679 45Z" fill="url(#paint14_linear_20_94)"/>
<path d="M17.364 70.6361C15.6641 68.9362 13.404 68 11 68C8.59602 68 6.33589 68.9362 4.63602 70.6361C2.93614 72.3359 2 74.596 2 77C2 79.404 2.93614 81.6641 4.63602 83.3639C6.33589 85.0638 8.59602 86 11 86C13.404 86 15.6641 85.0638 17.364 83.3639C19.0639 81.6641 20 79.404 20 77C20 74.596 19.0639 72.3359 17.364 70.6361ZM11 84.2335C7.01142 84.2335 3.76653 80.9885 3.76653 77C3.76653 76.9935 3.76674 76.987 3.76678 76.9805C3.76678 76.9789 3.76653 76.9773 3.76653 76.9756C3.76653 76.9729 3.76688 76.9702 3.76695 76.9674C3.7845 73.0267 6.9692 69.8205 10.9017 69.7678C10.9099 69.7674 10.9181 69.7666 10.9264 69.7666C10.9314 69.7666 10.9363 69.7672 10.9412 69.7673C10.9608 69.7672 10.9804 69.7666 11 69.7666C14.9886 69.7666 18.2335 73.0115 18.2335 77C18.2335 80.9886 14.9886 84.2335 11 84.2335Z" fill="url(#paint15_linear_20_94)"/>
<path d="M16.495 77.4345C16.2008 77.4345 15.9624 77.1961 15.9624 76.902C15.9624 76.6079 16.2008 76.3694 16.495 76.3694H17.1369C16.8354 73.4136 14.4382 71.0688 11.4594 70.8487V71.4075C11.4594 71.7016 11.221 71.94 10.9269 71.94C10.6328 71.94 10.3943 71.7016 10.3943 71.4075V70.8614C7.45963 71.149 5.12199 73.5017 4.85751 76.443H5.43238C5.7265 76.443 5.96493 76.6814 5.96493 76.9756C5.96493 77.2697 5.7265 77.5081 5.43238 77.5081H4.85315C5.09801 80.4968 7.48252 82.8886 10.468 83.1451V82.47C10.468 82.1759 10.7064 81.9375 11.0005 81.9375C11.2946 81.9375 11.533 82.1759 11.533 82.47V83.1451C14.5429 82.8865 16.9419 80.4574 17.1534 77.4345H16.495V77.4345ZM13.1563 75.5973L11.3771 77.3766C11.2772 77.4764 11.1418 77.5325 11.0005 77.5325C10.8593 77.5325 10.7238 77.4764 10.624 77.3766L7.52696 74.2795C7.31897 74.0716 7.31897 73.7344 7.52696 73.5264C7.73491 73.3184 8.07209 73.3184 8.28008 73.5264L11.0006 76.2469L12.4032 74.8442C12.6112 74.6362 12.9484 74.6362 13.1564 74.8442C13.3643 75.0522 13.3643 75.3894 13.1563 75.5973Z" fill="url(#paint16_linear_20_94)"/>
<path d="M6.89844 96.1539C6.5466 96.2257 6.20527 96.338 5.90051 96.5344L5.26652 95.549C5.76297 95.2292 6.31852 95.0229 6.89844 94.94V90.3165L1 91.4887V107.918L6.89844 106.746V96.1539ZM4.55469 99H3.38281C3.38281 98.0702 3.68609 97.193 4.26059 96.464L5.1807 97.1895C4.77098 97.7097 4.55469 98.3357 4.55469 99V99Z" fill="url(#paint17_linear_20_94)"/>
<path d="M13.9297 101.869V91.277L8.07031 90.3005V106.723L13.9297 107.7V103.046C13.1579 102.934 12.4223 102.614 11.8303 102.101L12.5982 101.215C12.9844 101.55 13.4391 101.77 13.9297 101.869ZM8.70145 96.3341L9.18895 95.2687C10.0215 95.6492 10.711 96.3067 11.1304 97.1198L10.089 97.6577C9.78922 97.0763 9.29656 96.6065 8.70145 96.3341ZM10.9634 101.051C10.604 100.431 10.4141 99.7216 10.4141 99C10.4141 98.8587 10.4043 98.7191 10.3843 98.5834L11.5447 98.4164C11.5716 98.6069 11.5859 98.8015 11.5859 99C11.5859 99.5156 11.7216 100.022 11.9773 100.464L10.9634 101.051Z" fill="url(#paint18_linear_20_94)"/>
<path d="M15.1016 107.683L21 106.511V90.0822L15.1016 91.254V107.683ZM17.4453 99.0011C17.4453 99.0003 17.4453 99.0007 17.4453 99C17.4453 98.9428 17.4453 97.8281 17.4453 97.8281H18.6172V99C18.6176 99.3922 18.5622 99.7808 18.453 100.155L17.328 99.8251C17.4064 99.5585 17.4459 99.2815 17.4453 99.0011ZM16.9023 100.699L17.8568 101.379C17.324 102.127 16.5481 102.679 15.6709 102.937L15.3413 101.812C15.9673 101.629 16.5218 101.233 16.9023 100.699V100.699Z" fill="url(#paint19_linear_20_94)"/>
<defs>
<linearGradient id="paint0_linear_20_94" x1="11.0341" y1="12.8262" x2="11.0356" y2="19.7012" gradientUnits="userSpaceOnUse">
<stop stop-color="#FFEDCB"/>
<stop offset="1" stop-color="#EFAB33"/>
</linearGradient>
<linearGradient id="paint1_linear_20_94" x1="11.0053" y1="0.236842" x2="11.0089" y2="4.36081" gradientUnits="userSpaceOnUse">
<stop stop-color="#FFEDCB"/>
<stop offset="1" stop-color="#EFAB33"/>
</linearGradient>
<linearGradient id="paint2_linear_20_94" x1="11.0307" y1="-3.93165" x2="11.0437" y2="14.9746" gradientUnits="userSpaceOnUse">
<stop stop-color="#FFEDCB"/>
<stop offset="1" stop-color="#EFAB33"/>
</linearGradient>
<linearGradient id="paint3_linear_20_94" x1="4.96532" y1="32.8804" x2="4.96817" y2="35.5119" gradientUnits="userSpaceOnUse">
<stop stop-color="#FFEDCB"/>
<stop offset="1" stop-color="#FABC5F"/>
</linearGradient>
<linearGradient id="paint4_linear_20_94" x1="11.0159" y1="18.4216" x2="11.0381" y2="42.9999" gradientUnits="userSpaceOnUse">
<stop stop-color="#FFEDCB"/>
<stop offset="1" stop-color="#EFAB33"/>
</linearGradient>
<linearGradient id="paint5_linear_20_94" x1="11.5477" y1="16.4593" x2="11.5598" y2="29.5406" gradientUnits="userSpaceOnUse">
<stop stop-color="#FFEDCB"/>
<stop offset="1" stop-color="#EFAB33"/>
</linearGradient>
<linearGradient id="paint6_linear_20_94" x1="16.653" y1="23.7997" x2="16.6597" y2="29.5407" gradientUnits="userSpaceOnUse">
<stop stop-color="#FFEDCB"/>
<stop offset="1" stop-color="#EFAB33"/>
</linearGradient>
<linearGradient id="paint7_linear_20_94" x1="19.3856" y1="27.2012" x2="19.3876" y2="29.6546" gradientUnits="userSpaceOnUse">
<stop stop-color="#FFEDCB"/>
<stop offset="1" stop-color="#EFAB33"/>
</linearGradient>
<linearGradient id="paint8_linear_20_94" x1="5.44098" y1="39.0773" x2="5.45835" y2="50.9227" gradientUnits="userSpaceOnUse">
<stop stop-color="#FFEDCB"/>
<stop offset="0.0001" stop-color="#FFECC9"/>
<stop offset="1" stop-color="#EFAB33"/>
</linearGradient>
<linearGradient id="paint9_linear_20_94" x1="15.5729" y1="46.9429" x2="15.581" y2="52.7511" gradientUnits="userSpaceOnUse">
<stop stop-color="#FFEDCB"/>
<stop offset="0.0001" stop-color="#FFECC9"/>
<stop offset="1" stop-color="#EFAB33"/>
</linearGradient>
<linearGradient id="paint10_linear_20_94" x1="10.5106" y1="53.6389" x2="10.5217" y2="64" gradientUnits="userSpaceOnUse">
<stop stop-color="#FFEDCB"/>
<stop offset="0.0001" stop-color="#FFECC9"/>
<stop offset="1" stop-color="#EFAB33"/>
</linearGradient>
<linearGradient id="paint11_linear_20_94" x1="4.72344" y1="40.0717" x2="4.77999" y2="63.9999" gradientUnits="userSpaceOnUse">
<stop stop-color="#FFEDCB"/>
<stop offset="0.0001" stop-color="#FFECC9"/>
<stop offset="1" stop-color="#EFAB33"/>
</linearGradient>
<linearGradient id="paint12_linear_20_94" x1="10.5088" y1="47.0535" x2="10.5244" y2="57.7062" gradientUnits="userSpaceOnUse">
<stop stop-color="#FFEDCB"/>
<stop offset="0.0001" stop-color="#FFECC9"/>
<stop offset="1" stop-color="#EFAB33"/>
</linearGradient>
<linearGradient id="paint13_linear_20_94" x1="16.2994" y1="43.7287" x2="16.34" y2="63.9999" gradientUnits="userSpaceOnUse">
<stop stop-color="#FFEDCB"/>
<stop offset="0.0001" stop-color="#FFECC9"/>
<stop offset="1" stop-color="#EFAB33"/>
</linearGradient>
<linearGradient id="paint14_linear_20_94" x1="15.5814" y1="36.1356" x2="15.6074" y2="53.8643" gradientUnits="userSpaceOnUse">
<stop stop-color="#FFEDCB"/>
<stop offset="0.0001" stop-color="#FFECC9"/>
<stop offset="1" stop-color="#EFAB33"/>
</linearGradient>
<linearGradient id="paint15_linear_20_94" x1="11.0279" y1="50" x2="11.0806" y2="85.9999" gradientUnits="userSpaceOnUse">
<stop stop-color="#FFEDCB"/>
<stop offset="1" stop-color="#EFAB33"/>
</linearGradient>
<linearGradient id="paint16_linear_20_94" x1="11.0223" y1="58.5522" x2="11.0584" y2="83.1451" gradientUnits="userSpaceOnUse">
<stop stop-color="#FFEDCB"/>
<stop offset="1" stop-color="#EFAB33"/>
</linearGradient>
<linearGradient id="paint17_linear_20_94" x1="3.95835" y1="72.7152" x2="4.11237" y2="107.917" gradientUnits="userSpaceOnUse">
<stop stop-color="#FFEDCB"/>
<stop offset="1" stop-color="#EFAB33"/>
</linearGradient>
<linearGradient id="paint18_linear_20_94" x1="11.0091" y1="72.9014" x2="11.1606" y2="107.699" gradientUnits="userSpaceOnUse">
<stop stop-color="#FFEDCB"/>
<stop offset="1" stop-color="#EFAB33"/>
</linearGradient>
<linearGradient id="paint19_linear_20_94" x1="18.0599" y1="72.4809" x2="18.2139" y2="107.683" gradientUnits="userSpaceOnUse">
<stop stop-color="#FFEDCB"/>
<stop offset="1" stop-color="#EFAB33"/>
</linearGradient>
</defs>
</svg>
