<svg width="32" height="90" viewBox="0 0 32 90" fill="none" xmlns="http://www.w3.org/2000/svg">
<rect y="30" width="32" height="30" rx="10" fill="#2F89CE"/>
<ellipse cx="15.8177" cy="45" rx="14.8293" ry="15" fill="#2F89CE"/>
<path d="M8.16885 45.2399L11.5782 46.5175L12.9072 50.8148C12.965 51.1051 13.3117 51.1632 13.5429 50.989L15.4497 49.4211C15.6231 49.2468 15.912 49.2468 16.1432 49.4211L19.5525 51.9181C19.7836 52.0924 20.1303 51.9762 20.1881 51.6859L22.7306 39.4908C22.7884 39.2004 22.4995 38.9101 22.2106 39.0262L8.16885 44.485C7.82214 44.6011 7.82214 45.1238 8.16885 45.2399ZM12.7339 45.8787L19.4369 41.7556C19.5525 41.6975 19.668 41.8717 19.5525 41.9298L14.0629 47.0982C13.8896 47.2724 13.7162 47.5047 13.7162 47.7951L13.5429 49.1888C13.5429 49.363 13.2539 49.4211 13.1961 49.1888L12.5027 46.6336C12.3294 46.3433 12.4449 45.9948 12.7339 45.8787Z" fill="white"/>
<rect width="32" height="30" rx="10" fill="#48C95F"/>
<ellipse cx="14.8293" cy="15" rx="14.8293" ry="15" fill="#48C95F"/>
<path d="M20.5681 10.1875C19.173 8.78125 17.3129 8 15.3494 8C11.2675 8 7.9606 11.3333 7.9606 15.4479C7.9606 16.75 8.32229 18.0521 8.94233 19.1458L7.90894 23L11.8359 21.9583C12.9209 22.5312 14.1093 22.8438 15.3494 22.8438C19.4313 22.8438 22.7382 19.5104 22.7382 15.3958C22.6865 13.4688 21.9632 11.5937 20.5681 10.1875ZM18.9146 18.1042C18.7596 18.5208 18.0362 18.9375 17.6745 18.9896C17.3645 19.0417 16.9512 19.0417 16.5378 18.9375C16.2795 18.8333 15.9178 18.7292 15.5044 18.5208C13.6443 17.7396 12.4559 15.8646 12.3526 15.7083C12.2492 15.6042 11.5775 14.7187 11.5775 13.7812C11.5775 12.8437 12.0425 12.4271 12.1975 12.2187C12.3525 12.0104 12.5592 12.0104 12.7142 12.0104C12.8176 12.0104 12.9726 12.0104 13.0759 12.0104C13.1793 12.0104 13.3343 11.9583 13.4893 12.3229C13.6443 12.6875 14.006 13.625 14.0577 13.6771C14.1093 13.7813 14.1093 13.8854 14.0577 13.9896C14.006 14.0938 13.9543 14.1979 13.851 14.3021C13.7476 14.4062 13.6443 14.5625 13.5926 14.6146C13.4893 14.7187 13.3859 14.8229 13.4893 14.9792C13.5926 15.1875 13.9543 15.7604 14.5227 16.2812C15.2461 16.9062 15.8144 17.1146 16.0211 17.2188C16.2278 17.3229 16.3311 17.2708 16.4345 17.1667C16.5378 17.0625 16.8995 16.6458 17.0028 16.4375C17.1062 16.2292 17.2612 16.2813 17.4162 16.3333C17.5712 16.3854 18.5013 16.8542 18.6563 16.9583C18.863 17.0625 18.9663 17.1146 19.018 17.1667C19.0696 17.3229 19.0696 17.6875 18.9146 18.1042Z" fill="white"/>
<rect y="60" width="32" height="30" rx="10" fill="url(#paint0_linear_9_16)"/>
<path d="M20.9093 68H11.7151C10.6771 68 9.88617 68.8 9.88617 69.85V79.15C9.88617 80.2 10.6771 81 11.7151 81H20.9093C21.9473 81 22.7382 80.2 22.7382 79.15V69.85C22.7382 68.8 21.9473 68 20.9093 68ZM16.3122 78.4C18.4377 78.4 20.1678 76.7 20.1678 74.65C20.1678 74.3 20.1184 73.9 20.0195 73.6H21.107V78.9C21.107 79.15 20.9093 79.4 20.6127 79.4H12.0117C11.7645 79.4 11.5174 79.2 11.5174 78.9V73.55H12.6543C12.5554 73.9 12.506 74.25 12.506 74.6C12.4566 76.7 14.1867 78.4 16.3122 78.4ZM16.3122 76.9C14.9281 76.9 13.8406 75.8 13.8406 74.45C13.8406 73.1 14.9281 72 16.3122 72C17.6963 72 18.7837 73.1 18.7837 74.45C18.7837 75.85 17.6963 76.9 16.3122 76.9ZM21.0576 71.55C21.0576 71.85 20.8104 72.1 20.5138 72.1H19.1297C18.8332 72.1 18.586 71.85 18.586 71.55V70.2C18.586 69.9 18.8332 69.65 19.1297 69.65H20.5138C20.8104 69.65 21.0576 69.9 21.0576 70.2V71.55Z" fill="white"/>
<defs>
<linearGradient id="paint0_linear_9_16" x1="6.8" y1="86.625" x2="26.5865" y2="64.723" gradientUnits="userSpaceOnUse">
<stop stop-color="#EEA054"/>
<stop offset="0.502762" stop-color="#D64763"/>
<stop offset="1" stop-color="#B62A99"/>
</linearGradient>
</defs>
</svg>
