<svg width="130" height="43" viewBox="0 0 130 43" fill="none" xmlns="http://www.w3.org/2000/svg">
<path d="M80.4063 23.8008V13.4014C80.4068 13.0331 80.5578 12.68 80.8262 12.4197C81.0945 12.1594 81.4583 12.0132 81.8376 12.0132H91.6488C91.9808 12.0142 92.299 12.1428 92.5337 12.3709C92.7684 12.599 92.9006 12.9081 92.9015 13.2306V13.2306C92.9015 13.5536 92.7696 13.8635 92.5348 14.0923C92.3 14.3211 91.9814 14.4501 91.6488 14.4511H82.9123V17.3805H89.6884C89.8532 17.38 90.0166 17.4111 90.169 17.4721C90.3215 17.533 90.46 17.6225 90.5768 17.7355C90.6935 17.8486 90.7861 17.9829 90.8493 18.1308C90.9125 18.2786 90.9451 18.4372 90.9451 18.5973V18.6159C90.9452 18.7761 90.9127 18.9347 90.8495 19.0826C90.7864 19.2306 90.6937 19.3649 90.577 19.478C90.4602 19.5911 90.3217 19.6807 90.1692 19.7417C90.0167 19.8027 89.8533 19.8338 89.6884 19.8333H82.9123V22.762H91.6488C91.8133 22.762 91.9762 22.7935 92.1282 22.8547C92.2802 22.9158 92.4183 23.0054 92.5346 23.1184C92.6509 23.2314 92.7432 23.3655 92.8061 23.5131C92.8691 23.6608 92.9015 23.819 92.9015 23.9788C92.902 24.1389 92.87 24.2975 92.8073 24.4456C92.7446 24.5936 92.6524 24.7282 92.536 24.8416C92.4196 24.955 92.2813 25.045 92.1291 25.1064C91.9769 25.1677 91.8136 25.1994 91.6488 25.1994H81.8376C81.6489 25.1994 81.462 25.1631 81.2878 25.0927C81.1136 25.0224 80.9554 24.9192 80.8224 24.7892C80.6894 24.6592 80.5842 24.505 80.5127 24.3354C80.4413 24.1658 80.4051 23.9841 80.4063 23.8008Z" fill="#0E0E0F"/>
<path d="M99.6666 23.9736V14.4453H95.3787C95.0454 14.4453 94.7258 14.3167 94.4901 14.0878C94.2545 13.8589 94.1221 13.5484 94.1221 13.2247C94.1229 12.9015 94.2557 12.5919 94.4913 12.3637C94.7269 12.1355 95.046 12.0073 95.3787 12.0073H106.443C106.775 12.0073 107.095 12.1355 107.33 12.3637C107.566 12.5919 107.698 12.9015 107.699 13.2247C107.699 13.5484 107.567 13.8589 107.331 14.0878C107.096 14.3167 106.776 14.4453 106.443 14.4453H102.173V23.9736C102.173 24.1337 102.141 24.2923 102.078 24.4404C102.016 24.5884 101.924 24.723 101.807 24.8364C101.691 24.9498 101.553 25.0398 101.4 25.1012C101.248 25.1625 101.085 25.1942 100.92 25.1941C100.755 25.1942 100.592 25.1627 100.439 25.1013C100.287 25.04 100.149 24.95 100.032 24.8366C99.9159 24.7232 99.8237 24.5886 99.7609 24.4405C99.6981 24.2924 99.6661 24.1337 99.6666 23.9736Z" fill="#0E0E0F"/>
<path d="M78.2557 23.9825V13.2189C78.2557 12.8985 78.1247 12.5912 77.8915 12.3646C77.6583 12.1381 77.3421 12.0107 77.0122 12.0105H76.1028C75.9213 12.0105 75.742 12.0491 75.5774 12.1236C75.4129 12.198 75.2671 12.3066 75.1504 12.4416L67.1923 21.6396V13.2189C67.1916 12.8988 67.0602 12.5921 66.827 12.3661C66.5937 12.14 66.2777 12.0131 65.9482 12.0131H65.929C65.5992 12.0132 65.2829 12.1406 65.0497 12.3672C64.8165 12.5938 64.6855 12.9011 64.6855 13.2214V23.9851C64.6855 24.3055 64.8165 24.6127 65.0497 24.8393C65.2829 25.0659 65.5992 25.1933 65.929 25.1935H66.8384C67.0199 25.1936 67.1992 25.1551 67.3637 25.0807C67.5283 25.0064 67.6741 24.8979 67.7909 24.763L75.7681 15.5463V23.9857C75.7681 24.3062 75.8992 24.6136 76.1325 24.8402C76.3658 25.0668 76.6823 25.1941 77.0122 25.1941C77.1758 25.194 77.3378 25.1626 77.4889 25.1016C77.64 25.0407 77.7772 24.9514 77.8927 24.8388C78.0082 24.7263 78.0997 24.5927 78.162 24.4458C78.2243 24.2988 78.2561 24.1414 78.2557 23.9825Z" fill="#0E0E0F"/>
<path d="M122.679 23.9826V13.219C122.678 12.899 122.547 12.5923 122.313 12.3662C122.08 12.1401 121.764 12.0132 121.435 12.0132H120.525C120.344 12.0133 120.164 12.052 120 12.1264C119.835 12.2009 119.69 12.3094 119.573 12.4442L111.615 21.6397V13.219C111.615 12.899 111.483 12.5923 111.25 12.3662C111.017 12.1401 110.701 12.0132 110.371 12.0132H110.355C110.025 12.0132 109.709 12.1405 109.476 12.3671C109.242 12.5937 109.111 12.9011 109.111 13.2216V23.9852C109.111 24.3057 109.242 24.613 109.476 24.8396C109.709 25.0663 110.025 25.1936 110.355 25.1936H111.265C111.446 25.1936 111.626 25.155 111.79 25.0807C111.955 25.0063 112.1 24.898 112.217 24.7632L120.19 15.5465V23.9858C120.19 24.3063 120.322 24.6137 120.555 24.8403C120.788 25.0669 121.105 25.1942 121.435 25.1942C121.598 25.1942 121.76 25.1629 121.911 25.1019C122.063 25.041 122.2 24.9517 122.315 24.8391C122.431 24.7266 122.523 24.593 122.585 24.446C122.647 24.2991 122.679 24.1416 122.679 23.9826Z" fill="#0E0E0F"/>
<path d="M67.5759 31.08V32.0564H67.0296V31.5425H65.2319V32.0564H64.6855V31.0774H64.7874C64.9402 31.0729 65.048 30.9637 65.1115 30.7517C65.186 30.454 65.2253 30.149 65.2286 29.8427L65.257 29.0718H67.2161V31.0806L67.5759 31.08ZM65.675 30.6399C65.6535 30.7985 65.5924 30.9495 65.4971 31.08H66.6367V29.5382H65.763L65.7517 29.8979C65.7445 30.1478 65.7189 30.3968 65.675 30.6431V30.6399Z" fill="#0E0E0F"/>
<path d="M71.741 30.5494H71.3699V31.5464H70.7905V30.5494H70.4122L69.8414 31.5464H69.1602L69.9241 30.2519L69.2071 29.0712H69.8302L70.4016 30.0714H70.7905V29.0712H71.3699V30.0714H71.7489L72.3236 29.0712H72.946L72.233 30.2519L72.9937 31.5464H72.3131L71.741 30.5494Z" fill="#0E0E0F"/>
<path d="M74.7351 29.0712H75.3211V30.6836L76.5367 29.0712H77.0884V31.5464H76.505V29.9404L75.2893 31.5464H74.7324L74.7351 29.0712Z" fill="#0E0E0F"/>
<path d="M81.5035 29.0712V31.5464H80.9175V29.5382H79.7667V31.5464H79.1807V29.0712H81.5035Z" fill="#0E0E0F"/>
<path d="M83.4648 30.3297H84.4953V30.7716H83.4655L83.4648 30.3297Z" fill="#0E0E0F"/>
<path d="M88.2859 29.3782H87.4115V31.5464H87.055V29.3782H86.1846V29.0712H88.2859V29.3782Z" fill="#0E0E0F"/>
<path d="M92.1633 29.0712L91.031 31.1121C90.9566 31.2571 90.8475 31.3827 90.7129 31.4783C90.5962 31.5566 90.4578 31.5985 90.316 31.5984C90.1977 31.5971 90.081 31.5717 89.9734 31.5239L90.0687 31.2412C90.1455 31.2696 90.2266 31.2853 90.3088 31.2875C90.4688 31.2875 90.6011 31.2053 90.7056 31.0395L90.7645 30.9515L89.7373 29.0737H90.1262L90.953 30.6432L91.8015 29.0737L92.1633 29.0712Z" fill="#0E0E0F"/>
<path d="M95.7664 29.3005C95.856 29.3814 95.9274 29.4794 95.9762 29.5883C96.0251 29.6973 96.0503 29.8148 96.0503 29.9336C96.0503 30.0524 96.0251 30.1699 95.9762 30.2789C95.9274 30.3878 95.856 30.4858 95.7664 30.5667C95.5779 30.7202 95.3173 30.7967 94.9879 30.7967H94.3576V31.5464H93.9932V29.0712H94.9853C95.3173 29.0712 95.5779 29.1476 95.7664 29.3005ZM95.5019 30.3457C95.5595 30.2926 95.6054 30.2287 95.6367 30.1579C95.6681 30.087 95.6842 30.0107 95.6842 29.9336C95.6842 29.8565 95.6681 29.7802 95.6367 29.7093C95.6054 29.6385 95.5595 29.5746 95.5019 29.5215C95.3815 29.4264 95.2049 29.3782 94.9727 29.3782H94.3537V30.4896H94.9727C95.2102 30.4896 95.3835 30.4408 95.5038 30.3457H95.5019Z" fill="#0E0E0F"/>
<path d="M99.8282 30.1292C99.9896 30.2615 100.07 30.4559 100.07 30.7125C100.07 30.9836 99.9835 31.19 99.8097 31.3318C99.636 31.4735 99.3878 31.5442 99.065 31.5438H98.0127V29.0685H98.3732V29.9364H99.1311C99.4341 29.9364 99.6664 30.0007 99.8282 30.1292ZM99.5372 31.1249C99.595 31.0741 99.6402 31.0112 99.6694 30.941C99.6986 30.8708 99.7111 30.7951 99.7059 30.7195C99.7059 30.3803 99.4876 30.2108 99.0511 30.2108H98.3732V31.2643H99.0511C99.2621 31.2669 99.4235 31.2213 99.5372 31.1275V31.1249ZM100.474 29.0692H100.832V31.5444H100.471L100.474 29.0692Z" fill="#0E0E0F"/>
<path d="M53.1146 36.3779L56.3046 36.6753C55.8934 37.8431 55.3926 38.9793 54.8065 40.0743L54.0842 40.3358L37.7568 41.329L15.7658 36.7544L7.86602 39.8739C6.002 36.2956 5.03348 32.3406 5.03918 28.3304C5.03918 27.5434 5.07688 26.7629 5.14831 25.9946L6.97841 25.1145L10.5216 21.7855L13.5739 20.7133L15.0469 20.0362L17.2639 19.14L17.5357 19.3828L17.3545 21.3814L16.4444 22.6425C16.4444 22.6425 14.6461 23.757 14.6024 23.8238C14.5588 23.8907 12.8384 24.562 12.8384 24.562L11.2967 24.8781L9.30788 26.2323L11.5421 25.947L15.0793 24.896L16.0714 24.562L17.6224 23.5534L20.356 22.478L22.0974 19.5377L25.0122 23.0947L27.8616 25.9682L32.4252 28.3407L34.7329 30.4272L37.2416 34.0511L37.1973 32.578L36.6093 31.0407L35.3897 28.7801L33.9881 27.1978L30.7797 25.1993L29.4 24.1913L28.3365 21.9525V21.2266L29.6937 21.2908L31.1858 22.2544L35.7951 27.4792L42.1935 32.4418L47.9133 35.14L53.1146 36.3779Z" fill="#0E0E0F"/>
<path d="M6.49958 22.6328L5.54584 23.3196C7.94409 11.5827 18.6019 2.7373 31.3895 2.7373C44.396 2.7373 55.2 11.8923 57.3496 23.9273L54.9222 22.1504L53.9063 21.6885L51.9393 21.6005L50.7164 21.4913L48.9306 20.1062L45.947 18.4173L45.0872 19.2281L43.8675 19.7992C43.8675 19.7992 42.263 20.3703 42.1942 20.3703C42.1254 20.3703 40.9058 21.2696 40.9058 21.2696L39.1418 22.6772L37.0405 24.3474L36.6563 24.3018L35.8427 23.4243L33.9908 21.2279L30.9636 19.5576L26.0791 18.021L24.9937 17.2738L23.7715 16.2209L21.6451 15.3858L20.1536 14.9271L19.4089 13.8485L18.7514 13.2774L17.26 12.4455C17.26 12.4455 16.8532 12.6639 16.672 12.7519C16.4907 12.8399 14.8643 14.6412 14.8643 14.6412L13.7327 16.5742L12.5574 17.4094L9.43886 19.778L6.49958 22.6328Z" fill="url(#paint0_linear_0_46)"/>
<path d="M56.0297 31.3266L57.4775 31.9433C57.316 33.0742 57.0729 34.1926 56.75 35.2903L48.544 33.6535L45.7422 32.2922L41.5139 29.0878L39.5469 26.937L42.3056 24.8813L45.0173 23.7327L48.3164 24.1946L50.5553 25.8867C50.5553 25.8867 52.7009 29.2214 52.7009 29.2883C52.7009 29.3551 54.3742 32.0346 54.3742 32.0346L56.0687 32.9982L56.0297 31.3266Z" fill="#0E0E0F"/>
<path d="M57.7405 28.3305C57.7405 28.7827 57.728 29.2324 57.7028 29.6795L54.9911 27.0456L54.8535 26.2979L55.0572 26.1887L57.4773 27.5711L57.7306 27.7716C57.7372 27.9579 57.7405 28.1461 57.7405 28.3305Z" fill="#0E0E0F"/>
<defs>
<linearGradient id="paint0_linear_0_46" x1="31.4477" y1="25.2353" x2="31.4477" y2="3.44589" gradientUnits="userSpaceOnUse">
<stop stop-color="#DC083D"/>
<stop offset="1" stop-color="#FAE663"/>
</linearGradient>
</defs>
</svg>
