<svg width="270" height="120" viewBox="0 0 270 120" fill="none" xmlns="http://www.w3.org/2000/svg">
<path d="M0 6.13477C0 2.96784 2.90683 0.598705 6.00865 1.23757L131.009 26.9832C133.333 27.4618 135 29.5077 135 31.8804V115C135 117.761 132.761 120 130 120H5C2.23857 120 0 117.761 0 115V6.13477Z" fill="white"/>
<path d="M270 6.13477C270 2.96784 267.093 0.598705 263.991 1.23757L138.991 26.9832C136.667 27.4618 135 29.5077 135 31.8804V115C135 117.761 137.239 120 140 120H265C267.761 120 270 117.761 270 115V6.13477Z" fill="white"/>
</svg>
