<svg width="310" height="134" viewBox="0 0 310 134" fill="none" xmlns="http://www.w3.org/2000/svg">
<path d="M0 6.10091C0 2.94506 2.8877 0.578455 5.98208 1.19831L150.982 30.2443C153.318 30.7123 155 32.7641 155 35.1469V129C155 131.761 152.761 134 150 134H5C2.23858 134 0 131.761 0 129V6.10091Z" fill="white"/>
<path d="M310 6.10091C310 2.94506 307.112 0.578455 304.018 1.19831L159.018 30.2443C156.682 30.7123 155 32.7641 155 35.1469V129C155 131.761 157.239 134 160 134H305C307.761 134 310 131.761 310 129V6.10091Z" fill="white"/>
</svg>
